<?xml version="1.0" standalone="no"?>
<!DOCTYPE svg PUBLIC "-//W3C//DTD SVG 20010904//EN"
 "http://www.w3.org/TR/2001/REC-SVG-20010904/DTD/svg10.dtd">
<svg version="1.0" xmlns="http://www.w3.org/2000/svg"
 width="607.000000pt" height="693.000000pt" viewBox="0 0 607.000000 693.000000"
 preserveAspectRatio="xMidYMid meet">

<g transform="translate(0.000000,693.000000) scale(0.100000,-0.100000)"
fill="#000000" stroke="none">
<path d="M2910 6825 c-129 -29 -269 -96 -356 -171 -84 -71 -2159 -2223 -2208
-2289 -58 -79 -119 -202 -153 -311 l-28 -89 0 -1520 0 -1520 28 -90 c71 -229
192 -404 371 -537 151 -112 304 -170 501 -189 73 -6 760 -9 2055 -7 l1945 3
50 23 c63 29 110 73 143 137 23 43 27 62 27 140 0 81 -3 95 -30 144 -33 59
-77 100 -145 134 l-45 22 -1995 5 -1995 5 -52 21 c-114 47 -199 137 -236 248
-16 45 -17 176 -17 1462 0 1405 0 1414 21 1469 28 75 59 111 340 401 134 138
599 618 1033 1067 469 485 802 821 820 829 48 20 155 16 191 -7 36 -24 147
-138 1285 -1315 1103 -1142 1035 -1074 1101 -1105 110 -51 248 -27 335 60 96
96 120 227 62 345 -22 45 -243 278 -1167 1235 -626 649 -1168 1203 -1203 1232
-72 59 -214 133 -303 158 -85 23 -292 29 -375 10z"/>
<path d="M2974 5159 c-18 -19 -19 -42 -22 -292 -2 -150 0 -282 3 -295 16 -64
105 -86 144 -36 20 26 21 38 21 314 l0 287 -23 21 c-32 30 -97 30 -123 1z"/>
<path d="M2170 4833 c-35 -13 -60 -47 -60 -82 0 -33 15 -51 203 -238 192 -192
205 -203 240 -203 49 0 87 36 87 82 0 28 -22 54 -202 235 -196 195 -229 221
-268 206z"/>
<path d="M3845 4826 c-45 -20 -401 -385 -407 -417 -11 -58 24 -98 87 -99 38 0
45 6 228 193 103 105 195 202 203 214 23 33 10 80 -29 104 -37 22 -42 23 -82
5z"/>
<path d="M1823 3989 c-63 -19 -82 -86 -39 -136 l24 -28 274 -3 c245 -2 277 -1
308 15 60 31 66 105 13 140 -24 16 -58 18 -288 20 -143 1 -274 -3 -292 -8z"/>
<path d="M3704 3993 c-12 -2 -32 -15 -44 -28 -32 -34 -30 -79 4 -113 l26 -27
263 -3 c300 -4 329 1 354 54 16 31 16 37 0 68 -12 26 -26 37 -54 45 -36 10
-501 14 -549 4z"/>
<path d="M2992 3983 c-7 -3 -19 -18 -27 -33 -22 -43 -23 -2396 0 -2439 18 -36
62 -55 96 -42 13 5 123 86 243 180 l219 171 189 -343 c105 -188 199 -350 210
-359 11 -10 33 -18 49 -18 32 0 540 249 577 283 42 39 33 63 -158 406 -99 178
-180 326 -180 328 0 1 126 3 281 3 l281 0 29 29 c61 61 113 2 -849 963 -836
837 -879 878 -912 877 -19 0 -41 -3 -48 -6z"/>
<path d="M2313 3307 c-182 -181 -203 -206 -203 -235 0 -19 4 -41 10 -51 12
-24 64 -45 92 -38 13 4 114 98 226 210 179 180 202 207 202 236 0 45 -38 81
-87 81 -35 0 -48 -11 -240 -203z"/>
</g>
</svg>
