<svg id="Layer_1" data-name="Layer 1" xmlns="http://www.w3.org/2000/svg" viewBox="0 0 1960.87 1707.83"><defs><style>.cls-1{fill:#f1ebdf;stroke:#f1ebdf;stroke-miterlimit:10;}</style></defs><path class="cls-1" d="M886.28,1644.81c-94.21,0-187.42-.1-280.62.31-4.69,0-10.32,3.55-13.89,7.08-39,38.43-77.48,77.35-116.59,115.64a27.48,27.48,0,0,1-17.3,7.2q-109.49.72-219,0a29.92,29.92,0,0,1-18.46-7.42c-17.71-16.47-34.71-33.73-51.33-51.3-3.61-3.82-6.42-10.14-6.46-15.34-.47-54.34-.58-108.68.1-163,.07-6,4.2-13.47,8.8-17.71q107.57-99.26,216-197.59c7.1-6.45,9.82-12.94,9.78-22.5-.35-89.25-.22-178.5-.18-267.75,0-6.33-.1-11.6-6.34-16.37-6.73-5.15-7.11-13.49-.7-19.9,6.16-6.17,13.93-6.43,20.13-.25s5.34,13.13.18,20.35c-3.06,4.29-6,9.89-6.06,14.9q-.54,136.86-.1,273.7c0,8.24-2.35,13.9-8.48,19.48-72.39,66-144.47,132.37-216.88,198.36-6.65,6.07-9.85,12-9.76,21.3.47,50.77,0,101.55.53,152.32a28.62,28.62,0,0,0,7.06,17.48c15,16.36,30.71,32.11,46.86,47.35,4.07,3.85,10.72,7,16.2,7q108.28.69,216.58,0a24.09,24.09,0,0,0,15.25-6.39C510.58,1723.34,549,1684.3,588,1646c4.45-4.36,12.13-7.63,18.34-7.66,89.64-.49,179.29-.34,268.94-.32,6.27,0,11.61.58,15.12-7.43,4.37-10,14.22-12.27,24.36-9.44s14.92,10.7,14.86,20.59c-.06,9.36-4.66,16.63-14.32,19.66-10.47,3.27-18.67.07-24.84-8.69C888.9,1650.43,887.86,1647.81,886.28,1644.81Z" transform="translate(-18.9 -145.67)"/><path class="cls-1" d="M1602,831.74c0,45.62-.17,91.24.26,136.85,0,4.72,2.82,10.06,5.81,14,5.55,7.3,7.58,14.23.39,21.06-6,5.66-13.23,6-19.27.3-7.08-6.6-5.35-13.7-.14-21.21,3-4.34,5.72-10,5.73-15.13q.51-135.66,0-271.31c0-10.16,3.19-16.73,10.54-23.4,72-65.3,143.53-131,215.47-196.36,6.41-5.83,9.25-11.54,9.18-20.35-.43-51.16,0-102.34-.54-153.5-.06-5.9-3.13-13.05-7.19-17.41-15.1-16.27-30.9-31.94-47.13-47.07-4.11-3.83-10.82-6.85-16.35-6.88q-107.7-.69-215.39,0c-5.51,0-12.31,3-16.28,6.9q-57.78,56.64-114.59,114.27c-6.71,6.81-13.44,9.31-22.89,9.27-88.85-.33-177.7-.14-266.56-.32-6.81,0-11.25.9-14.92,7.9-5.06,9.67-14.85,11.49-24.85,8.46-9.51-2.88-14-10.58-13.94-20,.05-10,5.14-17.28,15.21-20.27s18.78,0,23.54,8.8c3.67,6.81,7.89,8.12,14.86,8.1,88.86-.21,177.71,0,266.56-.48,6.2,0,13.86-3.36,18.32-7.72q58.29-57,115.47-115.09c5.52-5.58,11.06-7.57,18.72-7.54,73,.24,146,0,219,.45a28,28,0,0,1,17.32,7.08c17.65,16.53,34.74,33.7,51.31,51.32,3.84,4.09,6.77,10.85,6.82,16.42.5,53.54.13,107.09.49,160.64,0,8.34-2.69,13.87-8.73,19.37-72.46,66-144.61,132.21-217.13,198.08-6.83,6.2-9.33,12.48-9.25,21.52C1602.25,742.89,1602,787.32,1602,831.74Z" transform="translate(-18.9 -145.67)"/><path class="cls-1" d="M1768.5,1093.53V742.87c0-25,.3-50-.18-75-.14-7.86,2.23-13.15,8.23-18.25,56.46-48.08,112.6-96.55,169.11-144.58,6.64-5.64,9.46-11.26,9.43-20.12q-.49-142.2-.12-284.4c0-7.07-.61-12.2-8.16-16.19-8.93-4.71-11.61-14-8.47-23.74s11.11-15.94,20.76-14.13c6.71,1.25,15.17,6.75,17.87,12.63,4.11,9,3.4,20.49-7.65,25.73-7.66,3.64-7.45,9-7.45,15.47.05,95.59-.08,191.19.23,286.78,0,9.18-2.81,15.16-9.83,21.14q-85.1,72.57-169.41,146c-3.64,3.16-7.06,9-7.07,13.53-.37,141.6-.3,283.2-.3,425.63a90.77,90.77,0,0,1,8.78,5.07c8.07,5.85,11.1,17.59,7.11,26.65-4.22,9.58-13.88,14.63-24.55,11-6.53-2.21-10-.38-14.32,4-31.26,31.56-62.88,62.77-94,94.53-3.65,3.72-6.49,10.06-6.53,15.21q-.69,83.89,0,167.79c0,4.31,2.72,9.2,5.5,12.78,5.59,7.19,7.69,14.1.66,21.08-6.41,6.37-13.83,6.4-19.94-.16-6.51-7-4.66-14,1.13-21.2,2.82-3.48,5.15-8.56,5.17-12.93q.51-83.9.06-167.79c0-7.8,2.35-13.22,7.84-18.63,31.9-31.49,63.4-63.38,95.2-95,4.23-4.2,6.13-7.61,4.32-14.17C1748.39,1108.92,1753.05,1102,1768.5,1093.53Z" transform="translate(-18.9 -145.67)"/><path class="cls-1" d="M347.4,664.63c0-27.37.27-54.74-.26-82.1-.09-4.72-2.63-10.06-5.6-13.91-5.62-7.31-7.5-14.32-.45-21.09,5.92-5.68,13.43-5.81,19.24-.09,6.68,6.59,5.81,13.73-.46,21-2.92,3.39-5.2,8.6-5.23,13-.34,56.32,0,112.65-.54,169A27.54,27.54,0,0,1,347,767.79c-31,31.78-62.57,63.08-94.27,94.2-5.33,5.23-7.32,9.61-5.15,17.25,2.61,9.19-1,18.27-9.81,22-8.28,3.51-7.06,9.25-7.06,15.37q0,206.46.2,412.92c0,9.23-2.8,15.27-9.72,21.17-55.82,47.62-111.26,95.68-167.06,143.31-6.85,5.85-10.09,11.67-10,21,.38,94.4.26,188.81.15,283.21,0,7,.27,12.24,8,16.2,9,4.6,11.45,14,8.6,23.73-2.92,10-10.66,15-20.63,14.76-9.32-.17-16.72-4.53-19.54-14.41-3-10.41-.74-19.86,9-24.49,7.65-3.66,7.69-8.7,7.69-15.2-.07-95.6.06-191.2-.23-286.79,0-9.14,2.67-15.18,9.73-21.17,56.54-48,112.65-96.5,169.07-144.63,5.6-4.77,8-9.58,8-17.13q-.36-207-.09-414.11c0-6.35-.76-10.53-7.54-13.91-9.65-4.8-12.72-17.51-8.41-26.89,4.43-9.6,14.8-13.66,25.89-11.57,3.7.7,9.26-.68,11.87-3.24q48.4-47.51,95.94-95.9c3.37-3.44,5.56-9.53,5.65-14.43C347.67,721,347.4,692.8,347.4,664.63Z" transform="translate(-18.9 -145.67)"/><path class="cls-1" d="M888.65,474.62c12.65-2.28,21.69,1.1,27.87,12,1.46,2.6,6.16,4.75,9.37,4.76q133.29.38,266.58-.1c4,0,9.64-3.46,11.86-7,10.56-16.76,20.63-33.85,30-51.31,4.48-8.38,9.71-11.65,19.49-11.55q78.54.8,157.09-.08a29.22,29.22,0,0,0,18.36-7.5q57.87-56.56,114.58-114.31c6.43-6.53,12.91-9.06,21.93-8.94q49.38.66,98.77,0c8.88-.12,11.66,2.6,11.53,11.51-.47,31.33-.09,62.68-.25,94,0,6.27.53,10.65,7.5,14,9,4.35,12.29,13.16,9.76,23.22-2.69,10.72-10.35,15.95-20.9,15.95-9.57,0-17-5-19.7-14.37-2.91-10-.11-18.56,8.75-25.12,3.25-2.4,7.31-6.56,7.37-10,.54-32.12.3-64.26.24-96.39,0-1.5-.55-3-1.1-5.83-20.63,0-41.14-.08-61.66,0-16.63.09-35.11-4.05-49.39,1.85s-24.5,21.81-36.29,33.54c-29.54,29.36-58.78,59-88.68,88a27.67,27.67,0,0,1-17.35,7.15q-79.12.81-158.27.13c-8.21-.06-12.79,2.41-16.68,9.71-9.32,17.48-20,34.2-29.31,51.7-3.94,7.43-8.75,9.59-16.84,9.56-87.27-.27-174.55-.13-261.82-.23-7.7,0-13.76.07-18.38,8.75C907.67,518,894.42,519.3,884.86,513c-8.92-5.91-12.64-17.92-6.6-27.11,4-6.14,3.18-10.24-.09-15.81-14.25-24.25-27.87-48.88-42.54-72.88-2.47-4-8.91-8-13.56-8-59.5-.54-119-.46-178.51-.12-4,0-8.69,2.57-11.87,5.33-7,6.07-13.85,8.11-20.94,1.14-6.4-6.3-6.09-13.61-.37-20.18s14.57-4.94,21.93,1.41a23.67,23.67,0,0,0,14.2,5.15c58.71.35,117.42.45,176.13,0,9.65-.07,14.92,3.14,19.52,11.48C857.06,420.44,872.79,447.05,888.65,474.62Z" transform="translate(-18.9 -145.67)"/><path class="cls-1" d="M330.26,1701.4c37.57,0,73.21.23,108.84-.32,3.9-.06,8.34-4,11.52-7.13,37.75-37.42,75.51-74.83,112.77-112.74,7.5-7.63,14.86-11.08,25.78-11,50.76.61,101.55,0,152.32.54,9.78.11,14.9-3.21,19.31-11.49,8.74-16.43,18.88-32.11,27.65-48.53,4.1-7.67,9.13-10.21,17.77-10.18,87.27.32,174.54.14,261.82.28,7.44,0,13-.32,17.12-8.57,5.24-10.45,18-12.64,27.86-6.87a21.62,21.62,0,0,1,8.35,27.92c-1.18,2.47-2.86,4.7-4.95,8.07,16.19,27.93,32.49,56.4,49.33,84.53,1.51,2.52,6.56,4.12,10,4.13q90.45.38,180.89,0c3.62,0,7.92-2.6,10.7-5.24,7-6.68,14.29-7.33,21-.9,5.84,5.58,6.47,12.86.63,19.11-6.64,7.12-13.46,6-21,.22-4.18-3.21-10-6-15.12-6q-88.06-.63-176.13-.07c-9.48.07-15-2.69-19.69-11.21-13.29-24.33-27.64-48.09-41.36-72.19-3.11-5.47-6.24-8.35-13.46-9-6.2-.54-13.82-4.91-17.39-10-4.1-5.84-7.94-7.41-14.35-7.4q-130.9.19-261.81-.05c-7.19,0-11.52,2-15.08,8.53-9.46,17.4-20.16,34.13-29.5,51.59-4.37,8.16-9.75,10.64-18.85,10.56q-79.12-.68-158.27.08a25.81,25.81,0,0,0-16.29,6.74c-39.35,38.62-78.06,77.89-117.44,116.48-4.18,4.09-11.42,7-17.31,7.07-33.31.67-66.64,0-100,.52-9.72.16-13.12-2.51-12.93-12.59.57-31.32.09-62.67.31-94,0-6-1.09-9.79-7.25-12.87-9-4.49-12.78-12.92-10.17-23,2.73-10.56,10.41-16.1,20.93-16.07,9.49,0,16.77,5.22,19.67,14.55,3.19,10.28-.3,18.49-9.18,24.76-2.83,2-6.75,5.26-6.79,8C330.1,1631.69,330.26,1665.74,330.26,1701.4Z" transform="translate(-18.9 -145.67)"/><path class="cls-1" d="M1606.53,169.12c-68.22,0-136.44.14-204.66-.18-8.24,0-14,2.44-19.69,8.23-39.32,39.78-79.06,79.13-118.36,118.91-5.77,5.84-11.59,8.1-19.76,8.09q-178.5-.36-357-.2c-7.45,0-14-.27-20,6.72-5.46,6.39-14,5.53-19.72-1.48-5.15-6.33-4.8-13.7,1.18-19.27,6.33-5.91,14.55-6.73,19.76.7,4.56,6.5,9.9,6.55,16.28,6.55q178.49-.06,357,.14c8.25,0,13.94-2.52,19.66-8.31q58.92-59.71,118.62-118.65c4.47-4.39,12.18-7.74,18.39-7.76q208.24-.65,416.48,0c5.84,0,13,3.2,17.29,7.29q33.57,32,65.71,65.52a26.63,26.63,0,0,1,6.88,16.38c.67,30.13.37,60.28.28,90.43,0,6.47,0,11.59,7.62,15.27,9,4.32,12.14,13.38,9.48,23.35s-10.13,15.33-20.11,15.53-17.7-4.69-20.61-14.75c-3-10.29-.21-19.4,9.46-24.4,6-3.11,7.35-6.9,7.31-13-.23-30.14.17-60.29-.37-90.42a23.36,23.36,0,0,0-6-14.37c-20.59-21.46-41.51-42.62-62.94-63.24a26,26,0,0,0-16.31-6.76C1743.77,169,1675.15,169.12,1606.53,169.12Z" transform="translate(-18.9 -145.67)"/><path class="cls-1" d="M392.27,1836.81c-69,0-138,.2-207-.34-6.25,0-13.87-3.3-18.44-7.62-21.61-20.43-42.17-42-63.56-62.63-6.48-6.26-9.38-12.64-9.22-21.77q.78-44.61-.12-89.23c-.09-4.39-3.41-9.92-7-12.8-8.22-6.66-12.89-14.12-9.7-24.65,3-9.87,10.5-15.11,20.52-15s17.24,5.67,20.17,15.52c3,10.12-.82,18.44-9.55,23.31-5.85,3.27-7.34,7-7.29,13.16.23,30.15-.2,60.3.39,90.43a25,25,0,0,0,6.39,15.39q30.93,32.16,63.15,63a24.53,24.53,0,0,0,15.42,6.14q206.46.48,412.92,0c5.49,0,12.27-3.11,16.23-7q59.82-58.82,118.7-118.57c6.31-6.4,12.57-9.21,21.69-9.19q178.5.45,357,.2c7,0,13.3.42,18.8-6.57,5-6.38,13.27-5.21,18.93.65s6.23,13,.3,19.14-12.65,6.61-20.19,1.25c-4.64-3.3-10.63-6.61-16-6.63q-178.5-.56-357,.06a30.8,30.8,0,0,0-19.45,8q-59.66,58.13-118.1,117.49c-6.11,6.16-12.29,8.53-20.9,8.49C530.31,1836.67,461.29,1836.81,392.27,1836.81Z" transform="translate(-18.9 -145.67)"/><path class="cls-1" d="M133.28,1332.6c-9.94-1.22-17.17-5.67-19.91-15.91-2.59-9.63.14-18.23,8.42-22.67,7.15-3.83,8.91-8.07,8.91-15.6q-.25-501.41-.41-1002.81c0-5-3-10.68-6.15-14.91-5.57-7.53-6.65-14.68.14-21.26,5.89-5.7,13.23-5.9,19.09.16,6.49,6.73,5.73,13.6-.29,21.12a26.61,26.61,0,0,0-5.33,15.45q-.39,297.39-.22,594.78,0,203.41-.08,406.83c0,7,.41,12.23,8.11,16.12,9.22,4.66,11.15,14.31,8.41,23.83C151.11,1327.63,143.31,1332,133.28,1332.6Z" transform="translate(-18.9 -145.67)"/><path class="cls-1" d="M1861.61,1222.22q0-249.81.1-499.62c0-7.86-.66-13.55-8.89-18.25-11.12-6.35-11.68-21.74-2.9-31,8.59-9,22.24-9.07,30.67-.08,8.78,9.36,8.27,24.71-2.88,31-8.75,4.91-9.24,11-9.24,19.23q.19,499,.09,998.05c0,7.09-.27,13.39,6.68,18.77,6.45,5,6.16,12.94,0,18.77-5.94,5.58-13.24,5.77-19.39.36-6.38-5.6-7-13.65-.77-18.78,6.7-5.55,6.6-11.75,6.59-18.85Q1861.58,1472,1861.61,1222.22Z" transform="translate(-18.9 -145.67)"/><path class="cls-1" d="M1747.75,390.63c0-11.5-.28-23,.09-34.49.32-10,.2-18.16-10.53-24.67s-9.47-22.61-.12-31.18a21.05,21.05,0,0,1,29.84,1.58c8.57,9.57,8,25-3.13,31.07-9,4.87-9.3,11-9.23,19.24.28,28.14.57,56.31-.25,84.43-.18,6.26-3.26,13.94-7.64,18.36Q1635,567.72,1522.35,679.63c-6,6-9.08,11.82-8.83,20.6.65,23-.1,46,.47,69,.12,4.73,2.69,10,5.62,13.93,5.42,7.26,7.64,14.09.51,21.06-6.45,6.29-13.86,6.37-19.93-.24-6.42-7-4.7-14.11,1.26-21.16,2.67-3.17,5-7.8,5.07-11.81.46-25-.28-50,.59-74.91.22-6.27,3.32-13.91,7.71-18.34q111.27-112.43,223.46-223.94c7.13-7.09,10.2-14.07,9.65-23.93C1747.2,416.82,1747.75,403.71,1747.75,390.63Z" transform="translate(-18.9 -145.67)"/><path class="cls-1" d="M247.45,1704.21c-10-.31-17.08-5.17-20.1-15.07s-.18-19.21,8.81-23.49c8.07-3.85,8.28-9.16,8.25-16.08-.12-28.15.24-56.3-.22-84.44-.15-9,2.34-15.44,8.83-21.89q112.2-111.51,224-223.4c6.14-6.11,8.77-12.11,8.56-20.76-.57-23,.12-46-.46-69-.12-4.65-2.78-9.87-5.74-13.68-5.65-7.27-7.49-14.37-.64-21.18,6.22-6.19,14.1-6.29,20,.1,6.22,6.72,5.35,14-1.13,21.12-2.75,3-5,7.76-5,11.77-.46,24.57-.54,49.16-.06,73.73.16,8.18-2.21,14-8,19.8Q372.1,1433.88,260,1546.29c-6,6-9,12-8.79,20.7.56,27.35.39,54.71.07,82.06-.09,7.59.81,12.88,8.64,17.13,8.93,4.83,11,14.32,7.79,23.94C264.59,1699.4,257.47,1703.87,247.45,1704.21Z" transform="translate(-18.9 -145.67)"/><path class="cls-1" d="M1204.37,1769.29q-195.09,0-390.18-.11c-8.26,0-14.45.42-19.33,9.18-4.78,8.59-14.13,10.83-24.05,7.21-9.46-3.46-13.82-10.68-13.68-20.14.15-9.62,5.45-16.29,14.76-19.4,10.07-3.36,19-.3,23.67,8.38,4,7.48,9,8.29,16.15,8.28q392.55-.15,785.11,0c6.42,0,11.7-.32,16.52-6.4,5.57-7,13.77-5.91,19.81.33,5.64,5.84,6.14,12.94,0,19.09-6.38,6.4-14.36,7.06-19.72,0-5.12-6.72-11-6.43-17.71-6.43Q1400.05,1769.32,1204.37,1769.29Z" transform="translate(-18.9 -145.67)"/><path class="cls-1" d="M793.63,236.48H405.83c-7.74,0-15-.89-21,7.16-4.74,6.33-12.9,5.46-18.84-.67s-5.92-13.15-.26-19.12,13.9-7.82,18.9-1.31c6.07,7.91,13.21,7.25,21,7.25q389.58,0,779.17.1c8.22,0,14.44-.31,19.31-9.13,4.72-8.58,14.12-11,24-7.22,9.23,3.54,14,10.7,13.8,20.16s-5.26,16.34-14.74,19.38c-10.08,3.23-19.28.42-23.65-8.36-4.25-8.53-10.09-8.3-17.32-8.3Q989.9,236.54,793.63,236.48Z" transform="translate(-18.9 -145.67)"/><path class="cls-1" d="M341.46,1120.93c5.13-1.76,10.15-4.43,15.42-5.1,11.67-1.47,21.89,7.31,23.17,18.89,1.22,11.13-7.6,22-19.07,23.37-10.89,1.35-22.61-7.63-22.77-19.24-.1-7.83-2.79-11.81-9.1-15.91-3.21-2.09-5.18-8.35-5.21-12.75-.38-44,0-88-.5-132,0-5-3-10.56-6-14.88-5.23-7.5-6.79-14.71.1-21.32,5.91-5.66,13.39-5.83,19.24,0,6.56,6.58,6,13.79-.05,21.17-2.88,3.52-5.73,8.42-5.77,12.72-.42,43.61-.49,87.24.05,130.85.06,5.42,4.23,10.79,6.49,16.19Z" transform="translate(-18.9 -145.67)"/><path class="cls-1" d="M1675.44,956.28c0,19.44,0,38.87,0,58.3,0,8.82-1.18,17.24,7.44,24.42,6,5,4.43,13.12-2.25,18.58-6.18,5.05-12.42,4.75-18.2-.64-6.34-5.91-7.13-14-.86-18.71,7.73-5.75,6.89-12.52,6.9-19.87q0-63,0-126.11c0-13.1-5.92-16.84-17.3-11.36-9.53,4.58-18.61,4-26.17-3.87-7.19-7.45-8.08-16.29-2.83-25.1s13.8-11.68,23.63-9.5c11,2.44,14.83,10.37,15.79,20.93.33,3.57,2.59,8.54,5.43,10,7.21,3.7,8.72,8.82,8.57,16.31C1675.16,911.86,1675.44,934.08,1675.44,956.28Z" transform="translate(-18.9 -145.67)"/></svg>