<svg id="Layer_1" data-name="Layer 1" xmlns="http://www.w3.org/2000/svg" viewBox="0 0 1988.01 1260.2"><defs><style>.cls-1{fill:#f1ebdf;}</style></defs><path class="cls-1" d="M248.67,748.79c0-20.59.17-41.18-.18-61.76-.06-3.26-1.93-6.94-4-9.62-4.17-5.39-5.45-10.82-.52-15.8,4.53-4.57,10.41-4.56,14.9.13,4.83,5,3.89,10.26-.79,15.62A17.58,17.58,0,0,0,254,687.89q-.42,61.76-.06,123.51A18.55,18.55,0,0,1,247.91,826c-23.26,22.9-46.18,46.14-69.33,69.15-3.49,3.47-5.87,6.21-3.77,12A13.19,13.19,0,0,1,168,923.72c-5.94,2.94-5.93,7-5.93,12.08,0,101.47-.07,202.93.22,304.39,0,8.15-2.41,13.42-8.59,18.65q-62.61,53-124.52,106.82a16.42,16.42,0,0,0-5,11c-.28,71.46-.19,142.93-.25,214.39,0,4.29.29,7.34,5.16,9.69,7.23,3.49,9.19,10.56,7.13,18.11s-7.5,10.92-15.18,10.86c-7.29-.06-12.77-3.27-14.38-10.5-1.69-7.55-1-15.41,7.28-18.76,6-2.41,4.78-6.6,4.79-10.76q.06-106.76-.11-213.52c0-6.16,1.81-10.15,6.52-14.17q63.72-54.42,126.89-109.47a15.35,15.35,0,0,0,4.63-10.35q.38-154.39,0-308.8c0-2.92-2.45-6.68-4.89-8.59-6.47-5.06-9.64-13.1-6.85-20.17s10.22-10.38,18.94-9.32c3.08.38,7.44-.67,9.57-2.75q35.57-34.92,70.42-70.55a18.37,18.37,0,0,0,4.54-11.47C248.9,790,248.67,769.38,248.67,748.79Z" transform="translate(-5.99 -369.52)"/><path class="cls-1" d="M1751.16,1249.77c0,20.58-.24,41.18.22,61.75.08,3.78,2.5,7.81,4.7,11.16,3.58,5.4,4.42,10.33-.76,14.89-4.67,4.12-9.74,4-14.2-.36-4.95-4.83-3.63-9.64,0-15,2.38-3.48,4.63-8,4.67-12q.51-61.3.08-122.63A18.66,18.66,0,0,1,1752,1173c23.46-23.12,46.6-46.57,69.94-69.8,3.11-3.1,4.87-5.57,3.14-10.59-2.45-7.12.31-14.2,7-17.22,6.43-2.9,5.58-7.4,5.58-12.25,0-100.88.14-201.75-.21-302.63,0-9.18,2.81-15.07,9.69-20.9,40.37-34.22,80.26-69,120.61-103.24,6.21-5.26,8.48-10.6,8.44-18.71-.33-69.11-.23-138.22-.12-207.34,0-5.5-.2-9.58-6.29-12.64-6.67-3.35-8.54-10.31-6.14-17.57,2.27-6.85,7.32-10.46,14.61-10.58s12.82,3.42,14.78,10.25,1.55,14.32-5.68,17.76c-6.21,3-6.22,7.21-6.22,12.66.1,70.88,0,141.75.2,212.63,0,6.13-1.67,10.18-6.43,14.22-42.1,35.81-83.91,72-126,107.83-4.46,3.8-6.14,7.74-6.13,13.54q.23,152.64,0,305.28c0,5.19.43,9,6,12,6.77,3.74,8.8,10.76,6,18.41-2.75,7.46-9.57,11.8-17.57,9.48-5.93-1.72-9,.41-12.7,4.15-22.54,22.78-45.4,45.26-67.74,68.24a20.89,20.89,0,0,0-5.37,12.87C1750.85,1209.17,1751.16,1229.47,1751.16,1249.77Z" transform="translate(-5.99 -369.52)"/><path class="cls-1" d="M1750.4,432c-25.88,0-51.77.18-77.64-.12-6.35-.08-10.92,1.64-15.47,6.27q-42,42.78-84.82,84.87a20.26,20.26,0,0,1-12.84,5.3c-66.76.33-133.52.26-200.28.16-5,0-8.46.46-11.28,5.78-3.64,6.89-10.46,9.08-18.21,6.56-7-2.29-10.35-7.39-10.46-14.62-.12-7.4,3.71-12.42,10.44-14.69,7.52-2.54,14.53-.56,18.23,6.54,2.59,5,5.84,5.49,10.5,5.48,66.47-.08,132.94,0,199.4-.28a19.22,19.22,0,0,0,12-5.22c28.76-28.22,57-56.92,85.87-85.07a21.68,21.68,0,0,1,13.63-5.67q81.18-.57,162.34,0c4.61,0,10.18,2.55,13.61,5.74,12.92,12,25.34,24.57,37.46,37.38a18.32,18.32,0,0,1,4.78,11.35c.34,40.59.39,81.18-.06,121.77,0,4.22-2.83,9.48-6,12.43q-77.83,71.78-156.31,142.85c-7.87,7.1-11.17,14.08-11.09,24.76.5,64.71.27,129.42.22,194.13,0,5,0,9.31,4.74,13.19s4.39,9.55-.19,14c-4.81,4.65-10.07,4.59-14.81-.18-4.54-4.57-4.56-10.36.13-14,5.17-4,5-8.59,5-13.84,0-67.36,0-134.72-.15-202.08,0-6.15,1.92-10.2,6.46-14.32q81.3-73.87,162.1-148.28a17,17,0,0,0,4.81-11.2q.53-58.68,0-117.36a18.46,18.46,0,0,0-4.76-11.36c-11.29-12-22.9-23.7-35-34.86a21.37,21.37,0,0,0-13-5.2C1803.34,431.78,1776.87,432,1750.4,432Z" transform="translate(-5.99 -369.52)"/><path class="cls-1" d="M236,1517.21c27.74,0,54.19.16,80.63-.23,2.93,0,6.34-2.66,8.66-5q43.26-42.84,86.15-86c4.3-4.35,8.67-6,14.7-5.94,38.23.23,76.47-.12,114.69.32,7.59.08,11.56-2.35,15-8.94,6.33-12.26,14-23.82,20.39-36,2.9-5.54,6.44-7.14,12.44-7.12,65,.2,130,.09,195,.19,5.52,0,9.52-.29,12.68-6.43,4-7.72,13.37-8.9,20.74-4.37s9.9,13.06,5.2,20.65c-2.61,4.23-2.32,7.07,0,11,10.73,18.23,21,36.74,32,54.82,1.68,2.78,6.18,5.44,9.4,5.46q66.6.54,133.22.06c2.84,0,6.15-2.14,8.39-4.21,5-4.64,11.35-5.39,15.62-.7,4,4.42,4.67,9.45.71,14.34s-10.54,4.44-15.74.56c-3.11-2.33-7.32-4.46-11.05-4.48q-66.16-.47-132.34-.06c-6.12,0-9.47-1.91-12.41-7.24-10.36-18.77-21.32-37.22-31.88-55.88-2.2-3.88-4.41-5.46-9.41-5.74-4.56-.25-10.44-3.39-12.93-7.12-3-4.49-5.78-5.43-10.49-5.42q-97.05.15-194.1-.07c-5.78,0-9,1.68-11.73,6.79-7,12.91-14.91,25.32-21.9,38.23-2.79,5.16-6.17,6.73-11.87,6.69-38.81-.23-77.63,0-116.45-.25-6.65,0-11.47,1.71-16.22,6.53q-42.12,42.74-84.94,84.75a22,22,0,0,1-13.62,5.67c-25,.55-50,0-75,.42-7.17.12-8.93-2.22-8.81-9.06.39-23.23.06-46.47.22-69.71,0-4.43-.66-7.4-5.24-9.68-7.3-3.65-9.22-10.55-7.08-18.07,2-7,7.26-10.58,14.49-10.74,7.66-.16,13,3.59,15.23,10.9,2.39,7.74-.43,13.65-7,18.2-2.12,1.45-5,3.94-5,6C235.83,1465.52,236,1490.76,236,1517.21Z" transform="translate(-5.99 -369.52)"/><path class="cls-1" d="M249.5,1572.25c-26.76,0-53.52-.15-80.28.11-6.31.07-11-1.52-15.5-6.25-11.94-12.59-24.62-24.47-36.54-37.07-2.69-2.84-4.94-7.45-5-11.27q-.53-61.32,0-122.64c0-4,2.83-8.85,5.87-11.65q80.12-73.83,160.75-147.09c4.74-4.31,6.8-8.53,6.78-15.06q-.39-100.14-.07-200.28c0-5.27-1.11-9.1-5.16-13-4.32-4.11-4-9.9.6-14.08,4.86-4.39,10.44-4.2,14.86.72,4.11,4.56,3.35,9.24-.36,14.3-2.46,3.36-4.64,7.93-4.66,12q-.42,100.58,0,201.16c0,7.54-2.39,12.4-7.8,17.31-53.13,48.22-106,96.74-159.12,145-5,4.57-7,9.19-6.92,15.92.29,37.94,0,75.88.37,113.81a21,21,0,0,0,5.27,12.92c11,11.85,22.52,23.24,34.36,34.24,3,2.84,8,5.1,12.1,5.12q80.28.51,160.55,0a19.18,19.18,0,0,0,12-5.23c28.76-28.21,57-56.9,85.86-85.06a21.67,21.67,0,0,1,13.63-5.66c65.86-.36,131.73-.27,197.6-.19,5.75,0,10.18-.16,13.56-6.57s10.38-8.33,17.72-5.62c6.83,2.53,10.43,7.66,10.42,14.8s-3.67,12.19-10.65,14.53c-7.42,2.49-14.17.54-17.63-6-3.17-6-7.2-6.36-12.77-6.35q-97.47.18-195-.08c-6.82,0-11.45,2.19-16.09,6.9-27.66,28.07-55.68,55.78-83.29,83.89-4.75,4.84-9.59,6.64-16.23,6.57C302.43,1572.07,276,1572.25,249.5,1572.25Z" transform="translate(-5.99 -369.52)"/><path class="cls-1" d="M1764,481.44c-20.27,0-39.45,1.36-58.34-.38-18.73-1.73-31.71,4.5-44.28,18.23-23.41,25.58-48.77,49.35-73.07,74.11-4.3,4.38-8.69,5.93-14.72,5.89-38.81-.23-77.63,0-116.44-.25-5.67,0-9,1.47-11.82,6.64-6.66,12.42-14.35,24.29-20.93,36.75-3.29,6.2-7.15,8.46-14.33,8.43-65-.31-130-.14-194.94-.28-5.07,0-8.36.73-11.11,5.84-4.1,7.6-13.37,9.32-20.72,5.1-7.8-4.48-10.66-13.38-5.61-21.12,2.85-4.37,2.08-7.15-.19-11-10.6-18-21.12-36-31.31-54.17-2.51-4.48-5.46-5.87-10.44-5.85-44.1.18-88.21,0-132.31.27-3,0-6.42,1.81-8.75,3.82-5.26,4.52-10.53,5.61-15.66.76-4.81-4.54-4.83-10.26-.09-14.81,4.93-4.72,10.17-4.36,15.63.35a17.51,17.51,0,0,0,10.37,4.14q66.16.42,132.31,0c6.49-.05,9.93,2.08,13,7.7,10.32,18.79,21.09,37.34,32.13,55.71,1.54,2.55,5.59,3.61,8.52,5.28,4.61,2.63,10.6,4.19,13.51,8.07s5.55,4.91,9.86,4.9q97.48-.11,195,.08c5.44,0,8.43-1.71,11-6.45,7-12.9,14.82-25.37,21.71-38.32,3.07-5.76,6.91-7.52,13.25-7.48,38.81.27,77.63,0,116.44.28,6.47,0,10.88-2,15.35-6.52q42.15-42.68,84.94-84.72a22.1,22.1,0,0,1,13.64-5.72c24.39-.56,48.81,0,73.2-.41,7.81-.14,10.86,1.69,10.63,10.23-.61,22.62-.14,45.28-.26,67.92,0,4.64.43,7.86,5.49,10.44,7.14,3.62,8.94,10.84,6.65,18.29-2.25,7.29-7.92,10.77-15.54,10.49s-12.61-4.36-14.53-11.81,1.09-13,7.11-17.49c2.26-1.68,5.4-4.3,5.44-6.53C1764.17,532.91,1764,507.94,1764,481.44Z" transform="translate(-5.99 -369.52)"/><path class="cls-1" d="M282.77,1612.22c50.86,0,101.73.13,152.6-.24a20.32,20.32,0,0,0,12.79-5.38Q492,1563.75,535,1520.07c5.26-5.36,10.5-7.11,17.72-7.09q131.88.3,263.75.16c5.27,0,9.71.06,13.57-5.28s10.14-4.38,14.59.32c4.12,4.34,4.55,9.68.21,14.26-4.54,4.8-9.47,4.47-15,.74-3.49-2.37-7.91-4.78-11.92-4.79q-132.76-.41-265.52,0a21.48,21.48,0,0,0-13.6,5.61c-29.8,29.24-59.08,59-88.83,88.3a19,19,0,0,1-12.06,5.06q-155.25.42-310.5,0a19.35,19.35,0,0,1-12.13-5Q90.16,1588.3,66,1563.19a18.32,18.32,0,0,1-4.62-11.4c-.43-22.63-.27-45.28-.17-67.92,0-4.6-.23-8-5.36-10.6-7-3.53-9.55-10.24-7.12-18,2.3-7.3,7.66-11,15.29-10.86,7.33.09,12.4,4,14.46,10.81,2.29,7.55-.37,13.56-6.89,18.39-2.51,1.85-5,5.68-5,8.64q-.61,34,0,67.93a17.13,17.13,0,0,0,4.53,10.55c15.12,15.65,30.46,31.1,46.23,46.08a20.67,20.67,0,0,0,12.87,5.17C181,1612.35,231.9,1612.22,282.77,1612.22Z" transform="translate(-5.99 -369.52)"/><path class="cls-1" d="M1717.58,386.78c-50.87,0-101.75-.15-152.62.25a21.6,21.6,0,0,0-13.57,5.69c-29.61,29-58.67,58.61-88.29,87.64a21.46,21.46,0,0,1-13.59,5.61c-89.1.32-178.21.24-267.31.22-4.68,0-8.63,0-12.17,4.69-4,5.28-10,4.4-14.67-.15-4.52-4.39-4.67-9.62-.38-14.11,4.48-4.68,10.58-5.42,14.73-.46,3.64,4.36,7.46,4.69,12.22,4.69,88.52-.05,177,0,265.55-.28a21.59,21.59,0,0,0,13.57-5.74c29.67-29,58.8-58.49,88.44-87.48a20.37,20.37,0,0,1,12.86-5.41q155.26-.45,310.54,0A19.31,19.31,0,0,1,1885,387c16.31,15.7,32.34,31.71,47.92,48.14a22.34,22.34,0,0,1,5.69,13.58c.58,22.34.35,44.7.19,67.06,0,4.71.63,7.84,5.6,10.36,7.21,3.65,8.86,10.82,6.63,18.28s-7.92,10.72-15.5,10.49c-7.26-.23-12.29-3.87-14.23-11-2.09-7.65-.16-14.53,7.07-18.07,4.69-2.29,5.42-5.09,5.39-9.56-.15-22.35.16-44.71-.29-67a18.46,18.46,0,0,0-4.89-11.26c-14.45-15.06-29.55-29.5-44-44.53-4.63-4.79-9.32-6.85-16.09-6.81C1818.16,386.91,1767.87,386.78,1717.58,386.78Z" transform="translate(-5.99 -369.52)"/><path class="cls-1" d="M1908.86,1570c-3.66-3.09-8-5-9-8.06-1-3.2,0-9.07,2.37-10.87,5-3.81,4.69-8.26,4.69-13.23q0-370.61,0-741.21c0-5.31.28-9.69-6.08-12.75-6.59-3.17-8.82-10-6.67-17.41s7.59-11.33,15-11.45,13,3.92,15.12,11.22.4,14.07-6.37,17.59c-5.19,2.69-5.92,6-5.92,11.06q.15,372.38.28,744.75c0,3.72,3.31,7.35,4.4,11.21s2.68,8.54,1.65,12.16C1917.59,1565.69,1912.93,1567.21,1908.86,1570Z" transform="translate(-5.99 -369.52)"/><path class="cls-1" d="M93,831.05q0,185.28,0,370.54c0,6-.29,10.78,6.77,14.22,6.6,3.22,8,10.62,5.45,17.79-2.43,7-7.81,10.16-15,10.07s-12.57-3.5-14.57-10.56-1-14.31,6-17.69c6.16-3,6.26-7.14,6.26-12.61q-.12-371-.06-742c0-4.91.26-9.21-4.62-13.12s-5.12-11.06.44-14.37c3.52-2.09,10.7-1.82,14.08.51,5.24,3.6,3.86,9.32-.14,14.63a21.63,21.63,0,0,0-4.41,12Q92.88,645.79,93,831.05Z" transform="translate(-5.99 -369.52)"/><path class="cls-1" d="M792.69,433.82c3.35-3.89,5.4-8.37,8.45-9.22,3.49-1,8,1,11.84,2.24,3.52,1.13,6.79,4.36,10.18,4.36q292.5.33,585,.26c4.78,0,7.63-.87,10.06-5.86,3.22-6.61,9.72-9.11,17.23-7,7.89,2.19,11.61,7.74,11.54,15.67-.06,7.22-3.63,12.46-10.71,14.43-7.55,2.1-14.47.39-18.17-6.86-2.29-4.48-5-5.38-9.52-5.38q-292.93.13-585.89.25c-3.18,0-6.28,2.91-9.58,4-4,1.26-8.44,3.44-12,2.52C798.1,442.39,796.06,437.78,792.69,433.82Z" transform="translate(-5.99 -369.52)"/><path class="cls-1" d="M1207,1565.16c-3.34,4-5.28,8.37-8.34,9.39-3.22,1.06-7.6-.8-11.3-1.92-4.11-1.25-8-4.5-12-4.51q-291.16-.34-582.32-.26c-5.23,0-8.9.54-11.83,6.07-3.77,7.13-11.18,8.32-18.52,6-7-2.27-11.13-8.37-9.62-15,1.2-5.23,5.49-11.33,10.12-13.8,6.63-3.52,14.51-1.35,18.16,6,2.68,5.36,6.11,5.81,11.09,5.81q291.6-.13,583.21,0c4.86,0,8.6-.45,12-5,1.7-2.26,7.68-3,10.87-1.94S1203.61,1561.23,1207,1565.16Z" transform="translate(-5.99 -369.52)"/><path class="cls-1" d="M1645.77,862.21c-3.79-3.44-8.08-5.57-9.09-8.75s-.08-9,2.26-11c4.59-3.86,4.88-8,4.84-13.14-.14-17.05.2-34.12-.19-51.16-.15-6.67,1.79-11.45,6.59-16.22q83.23-82.68,166.16-165.67c4.26-4.24,6.33-8.41,6.23-14.56-.37-20.87-.21-41.75-.09-62.63,0-4.59-.21-7.95-5.4-10.49-7.08-3.46-9.43-10.23-7.08-18,2.13-7,7.45-10.71,14.44-10.92,7.47-.22,13.13,3.64,15.3,10.93,2.27,7.58.16,14.42-7.11,18-4.73,2.34-5.08,5.51-5.06,9.81.11,21.76-.15,43.53.18,65.28.1,6.09-1.77,10.34-6.08,14.63q-83.16,82.76-166.1,165.73c-4.71,4.7-7,9.32-6.83,16.12.48,16.16.21,32.34.13,48.51,0,5.3,0,9.95,4.78,14.15,2.27,2,3,7.91,1.79,11.08S1649.8,859,1645.77,862.21Z" transform="translate(-5.99 -369.52)"/><path class="cls-1" d="M177.59,1487.54c2.17,1.14,4.06,1.93,5.74,3,6.44,4.28,8.48,10.46,6.49,17.67s-7.23,10.53-14.43,10.75-12.65-2.91-15.09-9.83-1.59-14.53,5.15-17.9c7.2-3.59,7-8.67,7-14.88-.15-20.58.13-41.16-.18-61.73a17.47,17.47,0,0,1,5.69-13.83q83.74-83.37,167-167.21a22.24,22.24,0,0,0,5.73-13.54c.7-15.55.26-31.15.27-46.73,0-6.59.73-12.8-5.5-18.2a8.21,8.21,0,0,1,1.85-13.57c3.6-1.83,10.07-1.64,13.4.51a8.23,8.23,0,0,1,.67,13.69c-5.37,4.21-5.32,9.1-5.29,14.71.11,17-.21,34.11.18,51.15.14,6.1-1.79,10.35-6.09,14.62q-83.46,83-166.72,166.24c-4.33,4.3-6.1,8.53-6,14.6C177.79,1440.6,177.59,1464.1,177.59,1487.54Z" transform="translate(-5.99 -369.52)"/><path class="cls-1" d="M231.13,1029.1c0-13.51.05-27,0-40.53-.05-7.63,1.49-15.31-5.7-21.71-1.86-1.65-.47-11,2-12.48,3.41-2,10.36-1.56,13.84.76,4.91,3.29,3.83,8.87.17,14-2.46,3.42-4.87,7.87-4.93,11.89-.39,31.42-.24,62.85-.21,94.28,0,11.37,3.7,13.69,14.09,9.12,7-3.07,13.32-2,18.45,3.65s5.85,12.21,1.78,18.64c-3.77,6-9.64,8.76-16.66,7.13-7.67-1.79-11.76-6.92-12.64-15-.33-2.94-1.67-7-3.85-8.27-5.2-2.87-6.55-6.55-6.45-12.13C231.32,1062,231.13,1045.55,231.13,1029.1Z" transform="translate(-5.99 -369.52)"/><path class="cls-1" d="M1768.63,969.63c0,13.52-.05,27,0,40.54,0,7.66-1.35,15.22,5.89,21.6,4.38,3.85,3.1,10.85-2.48,13.38-3.64,1.66-9.81,1.28-13.2-.84a8.25,8.25,0,0,1-.67-13.7c5.8-4.53,5.27-9.86,5.27-15.61q0-45.39,0-90.78c0-11.54-3.69-14-13.88-9.36-7,3.16-13.22,2-18.42-3.63s-5.73-12.16-2.08-18.68c3.77-6.73,10.14-9,17.34-7.28s12,7.29,11.64,14.67c-.25,5.45,1.92,7.47,5.75,10.27a13.21,13.21,0,0,1,4.61,9.19C1768.86,936.13,1768.62,952.89,1768.63,969.63Z" transform="translate(-5.99 -369.52)"/></svg>